<?xml version="1.0" encoding="UTF-8"?><svg id="a" xmlns="http://www.w3.org/2000/svg" viewBox="0 0 240.07 69.99"><defs><style>.b{fill:none;}.c,.d{fill:#000;}.d{fill-rule:evenodd;}</style></defs><polygon class="c" points="80.06 62.28 80.06 9.26 94.75 9.26 94.75 62.28 80.06 62.28 80.06 62.28"/><polygon class="c" points="102.46 62.28 102.46 9.26 142.84 9.26 142.84 19.54 117.14 19.54 117.14 30.48 140.79 30.48 140.79 40.76 117.14 40.76 117.14 52 142.84 52 142.84 62.28 102.46 62.28 102.46 62.28"/><polygon class="c" points="151.07 62.28 151.07 9.26 191.45 9.26 191.45 19.54 165.76 19.54 165.76 30.48 189.39 30.48 189.39 40.76 165.76 40.76 165.76 52 191.45 52 191.45 62.28 151.07 62.28 151.07 62.28"/><polygon class="c" points="199.68 62.28 199.68 9.26 240.07 9.26 240.07 19.54 214.37 19.54 214.37 30.48 238.01 30.48 238.01 40.76 214.37 40.76 214.37 52 240.07 52 240.07 62.28 199.68 62.28 199.68 62.28"/><rect class="b" y="0" width="240.07" height="69.98"/><path class="c" d="M32.95,9.86c2.34-1.82,5.29-.31,7.26,1.37,2.06,1.58,4.21,3.36,6.1,5.19l.34,.2c5.22,4.85,10.07,10.23,14.06,15.93,.65,.99,1.22,2.11,.86,3.43-1.33,3.32-4.03,5.97-6.39,8.87-5.11,5.5-10.5,10.82-16.53,15.06-1.22,.86-2.87,1.66-4.33,.97-4.44-2.32-8.18-6.13-12.07-9.6-4.51-4.18-9.03-9.05-12.45-14.13-.51-.71-.65-1.6-.64-2.54,.44-1.76,1.64-3.2,2.78-4.68,4.04-5.14,8.98-10.02,13.97-14.48,.12-.11,.33-.36,.51-.47,2.14-1.85,4.27-3.5,6.52-5.11h0Zm6.86-5.35l-2.65-3.76c-.33-.2-.73-.53-1.09-.62-.78-.34-1.63,.07-2.26,.56l-4.8,6.25C21.32,16.46,12.21,25.36,2.27,32.18c-.79,.61-1.95,1.21-2.2,2.23-.26,.91,.21,1.66,.78,2.23,7.96,5.48,15.57,11.99,22.34,19.41,1.2,1.26,2.18,2.52,3.35,3.7,1.98,2.64,4.31,5.29,6.13,8.12,.57,.6,.67,1.58,1.56,1.87,.7,.24,1.56,.41,2.23,0l.66-.67c8.24-11.67,18.68-22.14,30.35-30.6,1.17-1.04,3.4-1.43,3.43-3.37-.08-.89-.6-1.77-1.37-2.26l-.19-.03c-6-4.08-11.6-8.7-16.87-13.95l-5.83-6.09c-2.36-2.62-4.65-5.51-6.83-8.28h0Zm-6,6.79c2.39-1.63,4.54,.65,6.4,1.95,7.17,5.77,13.94,12.38,19.1,19.84,.65,.96,.94,2.46,.36,3.55-1.34,2.23-3.14,4.27-4.85,6.33v.11c-4.26,4.54-8.77,9.2-13.63,13.05-2.37,1.45-4.55,4.6-7.61,2.65-6.96-5.09-13.63-11.42-19.28-18.21-.96-1.49-2.45-2.71-3.12-4.41-.93-2.29,1.12-3.94,2.29-5.66,5.76-7.11,12.92-14.07,20.35-19.21h0Zm1.51,4.68l-.65,2.08-3.25,9.32c.81,.08,1.82,0,2.62,.08v.08l-.48,10.54,.08,.11c1.04,.1,2.34,.15,3.4-.03v-.17l-.42-10.23,.06-.35,2.86-.05c-1.43-3.77-2.81-7.58-4.15-11.4h-.08Zm-11.08,14.6c-1.82,.92-4.51,2.3-4.21,4.8,.39,1.37,1.87,2.25,3.04,2.81,6.47,2.85,15.07,2.95,21.9,.82,1.69-.65,3.95-1.59,4.26-3.66-.02-1.71-1.83-2.78-3.12-3.44v-.08c.45-.18,.97-.34,1.44-.39v-.05c-2.29-.41-4.5-1.01-6.72-1.6,.43,.97,.73,2,1.09,3.01,.67-.21,1.35-.38,2.07-.47,1.17,.45,2.84,1.11,3.01,2.57,.13,1.37-1.37,2.03-2.31,2.59-5.01,1.82-10.65,2-15.88,.62-1.44-.46-3.53-1.04-3.71-2.88,1.03-2.42,3.68-2.92,5.89-3.51-1.14-.73-2.3-1.38-3.4-2.2-1.19,.07-2.28,.59-3.35,1.06h0Zm9.25,10.51c-.19,3.74-.24,7.21-.52,10.96,1.48,.13,3.15,.26,4.73,.03l-.47-10.46-.08-.5c-1.2,.05-2.34,.1-3.66-.04h0Z"/><path class="d" d="M47.32,62.51c-1.31,0-2.47,.91-2.47,2.46s1.16,2.47,2.47,2.47,2.47-.91,2.47-2.47-1.17-2.46-2.47-2.46Zm0,4.36h0c-.98,0-1.76-.76-1.76-1.9s.79-1.89,1.76-1.89,1.77,.75,1.77,1.89-.81,1.9-1.77,1.9Zm1.1-2.42c0-.61-.4-.8-1.09-.8h-.99v2.65h.57v-1.12h.27l.61,1.12h.68l-.68-1.16c.36-.03,.64-.2,.64-.69Zm-1.01,.29h-.51v-.64h.4c.22,0,.51,.02,.51,.3,0,.29-.15,.34-.4,.34Z"/></svg>