<svg xmlns="http://www.w3.org/2000/svg" width="120.075" height="36.642" viewBox="0 0 120.075 36.642">
  <g id="NDSS-Logo-120x37" transform="translate(-43 -37.936)">
    <g id="Group_2" data-name="Group 2" transform="translate(76.377 51.277)">
      <path id="Path_15" data-name="Path 15" d="M101.723,44.613c-.041-.014-.078-.03-.127-.044-1.753-.459-3.982-.774-5.37-1.038-2.11-.4-2.065-2.144.974-1.791a16.445,16.445,0,0,1,6.077,2.211s2.394-4.42,3.069-5.739a18.328,18.328,0,0,0-9.94-2.592c-3.6,0-6.7,1.365-8.124,3.334A6.843,6.843,0,0,0,92.4,49.926c1.67.414,3.608.742,4.89.99,2.11.405,2.043,2.271-1,1.968a16.539,16.539,0,0,1-7.059-2.548S86.9,54.9,86.22,56.229a21.1,21.1,0,0,0,10.89,2.664c3.6,0,6.7-1.376,8.124-3.362a6.922,6.922,0,0,0-3.511-10.917Z" transform="translate(-40.129 -35.603)" fill="#000"/>
      <path id="Path_16" data-name="Path 16" d="M115.975,44.613c-.041-.014-.078-.03-.127-.044-1.753-.459-3.983-.774-5.371-1.038-2.109-.4-2.065-2.144.974-1.791a16.458,16.458,0,0,1,6.078,2.211s2.394-4.42,3.069-5.739a18.328,18.328,0,0,0-9.94-2.592c-3.6,0-6.7,1.365-8.125,3.334a6.845,6.845,0,0,0,4.119,10.972c1.67.414,3.608.742,4.89.99,2.11.405,2.043,2.271-1,1.968a16.529,16.529,0,0,1-7.059-2.548s-2.333,4.562-3.008,5.893a21.1,21.1,0,0,0,10.89,2.664c3.6,0,6.7-1.376,8.124-3.362a6.922,6.922,0,0,0-3.511-10.917Z" transform="translate(-34.263 -35.603)" fill="#000"/>
      <path id="Path_17" data-name="Path 17" d="M92.53,46.652A10.547,10.547,0,0,0,82.192,35.907H70.579V58.313H82.192A10.547,10.547,0,0,0,92.53,47.568c0-.154-.006-.306-.011-.457S92.53,46.806,92.53,46.652ZM81.246,51.868H77.731V42.414h3.515c2.161,0,3.913,2.116,3.913,4.726S83.407,51.868,81.246,51.868Z" transform="translate(-46.566 -35.478)" fill="#000"/>
      <path id="Path_18" data-name="Path 18" d="M53.568,58.321H60.73V47.663l7.8,10.65h7.09V35.907H68.5V46.65L60.638,35.907h-7.07Z" transform="translate(-53.568 -35.478)" fill="#000"/>
    </g>
    <path id="Path_19" data-name="Path 19" d="M42.8,44.573a16.02,16.02,0,0,1,12.824,6.4l.014-6.88a4.015,4.015,0,0,0-2.534-3.739l.01-4.067h-.006a10.3,10.3,0,0,0-20.6-.044h-.006L32.5,40.313a4.014,4.014,0,0,0-2.549,3.728l-.016,7A16.018,16.018,0,0,1,42.8,44.573Zm-6.883-8.131h.008a6.883,6.883,0,0,1,13.766.03h0l-.008,3.6-13.774-.03Z" transform="translate(13.083 11.784)" fill="#000"/>
    <g id="Group_3" data-name="Group 3" transform="translate(43 57.335)">
      <path id="Path_20" data-name="Path 20" d="M41.8,47.915a1.96,1.96,0,0,1,.405-.3,23.3,23.3,0,0,0-1.323-3.784,2.006,2.006,0,0,1-.227.013,1.92,1.92,0,0,1-1.7-1.023,23.438,23.438,0,0,0-3.7,1.62q-.781.423-1.529.908a2.016,2.016,0,0,1,.1.271A24.3,24.3,0,0,1,41.8,47.915Z" transform="translate(-28.357 -38.69)" fill="#000"/>
      <path id="Path_21" data-name="Path 21" d="M31.727,45.694a1.8,1.8,0,0,1-.065-.246c-.584.025-1.16.075-1.732.143l0,1.884A24.348,24.348,0,0,1,31.727,45.694Z" transform="translate(-29.92 -37.61)" fill="#000"/>
      <path id="Path_22" data-name="Path 22" d="M30.07,46.722c.534-.058,1.07-.1,1.613-.126a1.921,1.921,0,0,1,2.871-.933q.834-.546,1.711-1.023a24.533,24.533,0,0,1,3.975-1.729,1.915,1.915,0,0,1,.438-1.109c-.37-.57-.766-1.121-1.183-1.656A15.043,15.043,0,0,0,30.07,46.722Z" transform="translate(-29.861 -39.792)" fill="#000"/>
      <path id="Path_23" data-name="Path 23" d="M49.087,51.232l.011-5.674a14.979,14.979,0,0,0-1.4-1.92c.016.306.025.614.025.925a18.4,18.4,0,0,1-1.941,8.253,1.919,1.919,0,0,1,.407,2.263A4.017,4.017,0,0,0,49.087,51.232Z" transform="translate(-23.393 -38.355)" fill="#000"/>
      <path id="Path_24" data-name="Path 24" d="M39.653,39.9a15.174,15.174,0,0,0-2.1.15c.311.415.613.837.9,1.272a1.924,1.924,0,0,1,2.263.8,24.268,24.268,0,0,1,6.384-.25A14.956,14.956,0,0,0,39.653,39.9Z" transform="translate(-26.782 -39.895)" fill="#000"/>
      <path id="Path_25" data-name="Path 25" d="M42.684,49.659a1.941,1.941,0,0,1-.059.474,24.681,24.681,0,0,1,2.9,2.336q.371.349.727.713a1.925,1.925,0,0,1,1.221-.145A17.366,17.366,0,0,0,49.3,45.259q0-.534-.031-1.059a1.92,1.92,0,0,1-1.77-1.914c0-.03,0-.059,0-.089a23.275,23.275,0,0,0-7.291.072v.017A1.917,1.917,0,0,1,39.47,43.8a24.363,24.363,0,0,1,1.372,3.941A1.92,1.92,0,0,1,42.684,49.659Z" transform="translate(-25.992 -39.051)" fill="#000"/>
      <path id="Path_26" data-name="Path 26" d="M33.931,54.42l10.464.023c.064-.7.1-1.417.1-2.139,0-.751-.037-1.495-.106-2.229a1.919,1.919,0,0,1-1.548-2.39A23.278,23.278,0,0,0,35.4,45.54a1.92,1.92,0,0,1-3.087.971,23.5,23.5,0,0,0-2.39,2.508l0,1.375A4.017,4.017,0,0,0,33.931,54.42Z" transform="translate(-29.922 -37.572)" fill="#000"/>
      <path id="Path_27" data-name="Path 27" d="M44.868,53.285a1.9,1.9,0,0,1,.018-2.074q-.322-.326-.656-.639a23.616,23.616,0,0,0-2.707-2.192,1.928,1.928,0,0,1-.627.412q.11,1.156.112,2.343c0,.721-.034,1.436-.095,2.141Z" transform="translate(-25.406 -36.403)" fill="#000"/>
    </g>
  </g>
</svg>
